<!DOCTYPE svg PUBLIC "-//W3C//DTD SVG 1.1//EN" "http://www.w3.org/Graphics/SVG/1.1/DTD/svg11.dtd">
<!-- Uploaded to: SVG Repo, www.svgrepo.com, Transformed by: SVG Repo Mixer Tools -->
<svg width="800px" height="800px" viewBox="0 -1 20 20" version="1.1" xmlns="http://www.w3.org/2000/svg" xmlns:xlink="http://www.w3.org/1999/xlink" fill="#000000">
<g id="SVGRepo_bgCarrier" stroke-width="0"/>
<g id="SVGRepo_tracerCarrier" stroke-linecap="round" stroke-linejoin="round"/>
<g id="SVGRepo_iconCarrier"> <title>network_2 [#ffffff]</title> <desc>Created with Sketch.</desc> <defs> </defs> <g id="Page-1" stroke="none" stroke-width="1" fill="none" fill-rule="evenodd"> <g id="Dribbble-Light-Preview" transform="translate(-60.000000, -3280.000000)" fill="#ffffff"> <g id="icons" transform="translate(56.000000, 160.000000)"> <path d="M12,3124 L16,3124 L16,3120 L12,3120 L12,3124 Z M20,3138 L24,3138 L24,3134 L20,3134 L20,3138 Z M4,3138 L8,3138 L8,3134 L4,3134 L4,3138 Z M7,3132 L5,3132 L5,3128 L13,3128 L13,3126 L15,3126 L15,3128 L23,3128 L23,3132 L21,3132 L21,3130 L7,3130 L7,3132 Z" id="network_2-[#ffffff]"> </path> </g> </g> </g> </g>
</svg>